<?xml version="1.0" standalone="no"?><!DOCTYPE svg PUBLIC "-//W3C//DTD SVG 1.1//EN" "http://www.w3.org/Graphics/SVG/1.1/DTD/svg11.dtd"><svg t="1533266125570" class="icon" style="" viewBox="0 0 1024 1024" version="1.1" xmlns="http://www.w3.org/2000/svg" p-id="31384" xmlns:xlink="http://www.w3.org/1999/xlink" width="32" height="32"><defs><style type="text/css"></style></defs><path d="M0 0v1024h1024V0z m494.36 640.87c0 61.74-50.72 112.46-112.46 112.46s-112.46-50.72-112.46-112.46 50.72-112.46 112.46-112.46h112.46z m0-147.75H381.9c-61.74 0-112.46-50.71-112.46-112.46S320.16 268.2 381.9 268.2s112.46 50.72 112.46 112.46zM642.1 753.33c-61.74 0-112.46-50.72-112.46-112.46V528.41H642.1c61.74 0 112.46 50.71 112.46 112.46S703.84 753.33 642.1 753.33z m0-260.21H529.64V380.66c0-61.74 50.72-112.46 112.46-112.46s112.46 50.72 112.46 112.46-50.72 112.46-112.46 112.46z" p-id="31385" fill="#13227a"></path></svg>