<?xml version="1.0" standalone="no"?><!DOCTYPE svg PUBLIC "-//W3C//DTD SVG 1.1//EN" "http://www.w3.org/Graphics/SVG/1.1/DTD/svg11.dtd"><svg t="1533176418807" class="icon" style="" viewBox="0 0 1024 1024" version="1.1" xmlns="http://www.w3.org/2000/svg" p-id="8308" xmlns:xlink="http://www.w3.org/1999/xlink" width="48" height="48"><defs><style type="text/css"></style></defs><path d="M775.987 217.844c-2.655 2.655-4.631 5.717-6.155 8.931l-1.388-1.388-241.359 241.359-241.359-241.359-1.388 1.388c-1.523-3.213-3.499-6.276-6.155-8.931-12.49-12.49-32.764-12.49-45.255 0-12.505 12.505-12.49 32.764 0 45.255 2.655 2.655 5.717 4.631 8.931 6.155l-1.388 1.388 241.359 241.359-241.359 241.359 1.388 1.388c-3.213 1.523-6.276 3.499-8.931 6.155-12.505 12.505-12.49 32.764 0 45.255s32.75 12.505 45.255 0c2.655-2.655 4.631-5.717 6.155-8.931l1.388 1.388 241.359-241.359 241.359 241.359 1.388-1.388c1.523 3.213 3.499 6.276 6.155 8.931 12.49 12.49 32.75 12.505 45.255 0 12.49-12.49 12.49-32.764 0-45.255-2.655-2.655-5.717-4.631-8.931-6.155l1.388-1.388-241.359-241.359 241.359-241.359-1.388-1.388c3.213-1.523 6.276-3.499 8.931-6.155 12.49-12.49 12.49-32.764 0-45.255s-32.764-12.49-45.255 0z" p-id="8309" fill="#ffffff"></path></svg>