<?xml version="1.0" standalone="no"?><!DOCTYPE svg PUBLIC "-//W3C//DTD SVG 1.1//EN" "http://www.w3.org/Graphics/SVG/1.1/DTD/svg11.dtd"><svg t="1533209389205" class="icon" style="" viewBox="0 0 1024 1024" version="1.1" xmlns="http://www.w3.org/2000/svg" p-id="16839" xmlns:xlink="http://www.w3.org/1999/xlink" width="32" height="32"><defs><style type="text/css"></style></defs><path d="M512.002047 132.149762c-211.320916 0-380.726188 171.152055-380.726188 380.726188 0 209.57004 171.152055 378.974287 378.979404 378.974287 211.316823 0 382.467855-169.401178 382.467855-378.974287C892.723118 303.301817 721.572086 132.149762 512.002047 132.149762L512.002047 132.149762zM730.306005 326.005912 601.069595 591.462796c-3.493567 5.240351-6.987135 10.480702-12.227486 12.227486l-261.966387 125.742842c-3.490497 1.746784-6.984065 3.493567-10.477632 3.493567-6.987135 0-13.970176-1.746784-19.210527-6.987135-8.733918-6.984065-10.476609-19.211551-5.240351-29.688159L419.436838 429.04466c1.746784-5.240351 6.987135-10.476609 12.227486-12.224416l263.71317-123.999129c10.476609-5.236258 22.701025-3.493567 29.688159 5.240351C733.799572 306.795385 735.546356 319.018777 730.306005 326.005912L730.306005 326.005912zM730.306005 326.005912M512.002047 460.479603c-29.692253 0-52.396347 22.704095-52.396347 52.396347 0 29.687136 22.704095 52.392254 52.396347 52.392254 27.940352 0 52.392254-22.705118 52.392254-52.392254C564.394301 483.183697 539.942399 460.479603 512.002047 460.479603L512.002047 460.479603zM512.002047 460.479603" p-id="16840"></path></svg>