<?xml version="1.0" standalone="no"?><!DOCTYPE svg PUBLIC "-//W3C//DTD SVG 1.1//EN" "http://www.w3.org/Graphics/SVG/1.1/DTD/svg11.dtd"><svg t="1533209030689" class="icon" style="" viewBox="0 0 1024 1024" version="1.1" xmlns="http://www.w3.org/2000/svg" p-id="15520" xmlns:xlink="http://www.w3.org/1999/xlink" width="32" height="32"><defs><style type="text/css"></style></defs><path d="M811.936163 651.288347c64.167438-0.378623 135.115304 22.227234 77.849043 95.055936-37.667901 47.840588-139.503241 133.228327-205.80325 96.316649-9.794064-5.528923-8.037047-21.725814 3.139504-24.359804 50.223868-11.55722 108.36301-27.247574 133.980457-73.587996-74.085322 20.849864-149.806911 40.304961-226.907917 44.702108-47.589878 2.641153-113.130593 4.399193-156.956751-23.608697-38.424124 49.228191-117.53695 30.387078-161.112398 85.515653-33.653471 42.438555-73.577762 130.594337-141.01057 108.116393-9.547447-3.13848-11.429307-15.570627-2.760881-21.093411 53.744042-34.031071 87.270623-86.896092 128.706337-132.985804-3.63683 1.384533-7.158027 3.139503-10.670013 5.529947-15.826454 10.671037-28.629038 24.232914-42.947138 36.665061-22.351054 19.212574-47.967478 36.414351-77.857229 40.432875-5.140067 0.75213-9.790994-0.378623-12.803607-5.148254-1.75804-3.01159-2.263553-5.403057-1.88493-7.65433-5.525853-2.009773-5.89936-11.174504 0.62524-12.939707 46.964638-12.679787 64.422242-52.484352 102.346993-78.474283 26.740014-18.205641 62.150502-31.273261 95.303576-34.65938 19.712971-34.032094 14.561647-74.086345 36.162618-108.995414-47.462988 1.511423-65.671699-59.895135-41.311895-99.575879 5.77247-9.420557 22.852474-6.281053 21.972431 6.028297-2.13564 30.012547 20.341281 41.940205 45.460378 48.342008 39.799448-13.809517 78.729086-9.794064 121.930003-2.1295 61.399395 10.921747 175.669952 9.286504 171.019025-81.497129-1.25662-24.105001-18.707061-76.974116-21.34719-120.298854-1.373277-0.12689-2.8847-0.624217-4.26821-1.503237-1.122567-0.760317-2.25639-1.762133-3.514034-2.514263-10.045797 0.25378-19.211551-2.13564-28.004821-9.420557-12.054547-10.168594-21.721721-22.976294-36.660968-29.130457-10.05296-4.14132-12.06171-19.083637 0-22.351054 17.075911-4.76656 34.902928-7.411807 52.105729-2.5071-18.580171-14.44192-36.413328-29.888727-53.108569-46.467312-21.728884 15.44783-54.125735 22.227234-74.593905 1.638314-7.02909-7.02909 1.75804-17.96107 10.3006-13.439081 15.945157 8.53335 33.780361 4.514827 47.840588-5.403056-5.653767-6.404873-11.299347-12.803607-16.451693-19.590174a480.864886 480.864886 0 0 1-15.193028-20.462031c-24.359804 2.128477-46.085618-11.302417-55.625901-35.419697-3.390213-8.65717 9.28548-12.298094 13.936407-5.899361 7.033184 9.80225 16.951067 17.201777 27.872814 19.211551-12.298094-22.597671-19.836791-47.208185-13.184277-71.949682 2.136663-7.528464 14.569834-8.414647 16.080234 0 4.145413 23.861454 12.551874 45.336558 23.601534 65.046458 15.697517-11.676947 14.314007-26.994818 20.72195-44.827974 2.76088-7.786337 15.57165-12.05557 19.836791-2.633991 10.800997 24.486694-5.39487 54.121642-27.745924 68.058049 7.157004 10.423397 15.066137 20.341281 23.480784 30.005384 4.0175-6.027274 7.157004-12.424984 8.407484-19.581987 1.893116-10.051937-1.50119-20.098757 1.638313-29.634947 2.379187-7.411807 11.429307-10.172687 17.201777-4.649904 19.465331 18.964934 6.277984 51.105958-10.296507 72.200392 22.096251 23.113417 46.329165 44.832068 69.315692 67.311035-18.20871-23.982204-22.986527-51.356668-22.732747-79.986729-22.351054-6.786567-31.891338-29.634948-20.089548-58.017368 2.390443-5.89936 12.054547-5.77247 11.926634 1.63115-0.25071 9.543354-1.627057 28.505217 9.169847 33.398668 1.50733-19.836791 4.396123-40.050158 5.77247-60.142775-27.999704-3.13848-43.571355-25.362644-46.333258-52.744272-0.877997-9.665127 14.31503-11.295254 16.704451-2.252297 3.89061 14.18814 13.93743 32.268938 30.630624 31.888268 0-27.996634-4.514827-55.117318-20.838607-79.858815-4.523013-6.779404 4.523013-16.196891 11.429307-11.430331 26.115797 18.715247 35.663244 46.587038 36.911677 76.603679 5.275143-6.906294 8.414647-15.319917 16.828271-18.968004 5.77554-2.5071 11.926634-0.62524 13.936407 5.656837 6.027274 18.58631-12.679787 37.038568-32.268938 46.084595-2.642177 21.845541-5.900384 42.938951-7.411806 63.281255a89.62525 89.62525 0 0 0 8.668426-3.76372c29.130458-15.19405 40.810474-36.792974 58.133002-62.656016 6.282077-9.293667 20.596084-5.783727 20.973684 5.645581 1.63115 40.305985-51.859112 80.744999-88.026846 86.772272-0.119727 0-0.37453 0-0.629333 0.12689 0.508583 25.609261 5.529947 50.350758 20.473287 74.584696 20.214391-5.900384 43.445488-4.397147 63.658855-6.525624 29.888727-3.139503 64.549132-11.80793 91.041506 6.39771 46.082548 31.770588-26.368554 89.660042-59.015092 107.865684 4.770653 48.349171 21.220301 91.666746 31.516808 141.266397 5.776563 27.878954 8.919137 55.000662 0.756223 79.360466" fill="#8a8a8a" p-id="15521"></path></svg>