<?xml version="1.0" standalone="no"?><!DOCTYPE svg PUBLIC "-//W3C//DTD SVG 1.1//EN" "http://www.w3.org/Graphics/SVG/1.1/DTD/svg11.dtd"><svg t="1533189766508" class="icon" style="" viewBox="0 0 1024 1024" version="1.1" xmlns="http://www.w3.org/2000/svg" p-id="3482" xmlns:xlink="http://www.w3.org/1999/xlink" width="128" height="128"><defs><style type="text/css"></style></defs><path d="M422.1 211.2c-117.6 19-202.9 119.2-202.9 238.3 0 10.3 0.8 21.1 2.7 34 1.4 10.1 10.1 17.4 20 17.4 0.9 0 1.9-0.1 2.8-0.2 11-1.6 18.7-11.8 17.2-22.8s-2.3-20-2.3-28.4c0-99.2 71.1-182.6 169-198.4 11-1.8 18.5-12.1 16.7-23.1-1.8-11.1-12.3-18.7-23.2-16.8zM921 887L692.2 658.2c53.8-61.6 83.4-139.3 83.4-221.8 0-186.4-151.6-338-338-338s-338 151.6-338 338 151.6 338 338 338c81.8 0 159-29.1 220.3-82l228.8 228.8c4.7 4.7 10.9 7.1 17.1 7.1s12.4-2.4 17.1-7.1c9.5-9.4 9.5-24.7 0.1-34.2zM643 641.8c-54.9 54.9-127.8 85.1-205.4 85.1-160.2 0-290.4-130.3-290.4-290.4 0-160.1 130.3-290.4 290.4-290.4 160.1 0 290.4 130.3 290.4 290.4 0.1 77.5-30.2 150.4-85 205.3z" p-id="3483" fill="#8a8a8a"></path></svg>