<?xml version="1.0" standalone="no"?><!DOCTYPE svg PUBLIC "-//W3C//DTD SVG 1.1//EN" "http://www.w3.org/Graphics/SVG/1.1/DTD/svg11.dtd"><svg t="1533280450333" class="icon" style="" viewBox="0 0 1024 1024" version="1.1" xmlns="http://www.w3.org/2000/svg" p-id="2284" xmlns:xlink="http://www.w3.org/1999/xlink" width="32" height="32"><defs><style type="text/css"></style></defs><path d="M693.527273 386.327273L353.745455 51.2S423.563636 18.618182 525.963636 18.618182 698.181818 46.545455 698.181818 46.545455v339.781818h-4.654545z" fill="#FA5452" p-id="2285"></path><path d="M730.763636 544.581818l4.654546-470.109091s69.818182 23.272727 144.290909 97.745455C949.527273 237.381818 977.454545 302.545455 977.454545 302.545455l-246.690909 242.036363z" fill="#6467F0" p-id="2286"></path><path d="M646.981818 684.218182l344.436364-330.472727s32.581818 65.163636 32.581818 167.563636c0 97.745455-27.927273 167.563636-27.927273 167.563636h-349.090909v-4.654545z" fill="#5283F0" p-id="2287"></path><path d="M493.381818 726.109091H977.454545s-27.927273 69.818182-97.745454 139.636364c-74.472727 69.818182-139.636364 97.745455-139.636364 97.745454l-246.690909-237.381818z" fill="#00B1FE" p-id="2288"></path><path d="M353.745455 646.981818l339.781818 335.127273s-69.818182 32.581818-172.218182 32.581818-172.218182-27.927273-172.218182-27.927273v-339.781818h4.654546z" fill="#66D020" p-id="2289"></path><path d="M311.854545 493.381818v470.109091s-69.818182-23.272727-144.290909-97.745454c-74.472727-69.818182-102.4-134.981818-102.4-134.981819l246.690909-237.381818z" fill="#9AD122" p-id="2290"></path><path d="M395.636364 349.090909l-344.436364 330.472727S18.618182 614.4 18.618182 512c0-97.745455 27.927273-167.563636 27.927273-167.563636h349.090909v4.654545z" fill="#FFC817" p-id="2291"></path><path d="M553.890909 307.2H69.818182s27.927273-69.818182 97.745454-139.636364c74.472727-69.818182 139.636364-97.745455 139.636364-97.745454l246.690909 237.381818z" fill="#FF7612" p-id="2292"></path></svg>