<?xml version="1.0" standalone="no"?><!DOCTYPE svg PUBLIC "-//W3C//DTD SVG 1.1//EN" "http://www.w3.org/Graphics/SVG/1.1/DTD/svg11.dtd"><svg t="1533176844522" class="icon" style="" viewBox="0 0 1024 1024" version="1.1" xmlns="http://www.w3.org/2000/svg" p-id="9110" xmlns:xlink="http://www.w3.org/1999/xlink" width="32" height="32"><defs><style type="text/css"></style></defs><path d="M954.176 465.44l-395.648 0 0-395.648c0-25.728-20.832-46.56-46.56-46.56s-46.56 20.832-46.56 46.56l0 395.648-395.648 0c-25.728 0-46.56 20.832-46.56 46.56s20.832 46.56 46.56 46.56l395.648 0 0 395.648c0 25.728 20.832 46.56 46.56 46.56s46.56-20.832 46.56-46.56l0-395.648 395.648 0c25.728 0 46.56-20.832 46.56-46.56s-20.832-46.56-46.56-46.56z" p-id="9111" fill="#ffffff"></path></svg>