<?xml version="1.0" standalone="no"?><!DOCTYPE svg PUBLIC "-//W3C//DTD SVG 1.1//EN" "http://www.w3.org/Graphics/SVG/1.1/DTD/svg11.dtd"><svg t="1533294714189" class="icon" style="" viewBox="0 0 1024 1024" version="1.1" xmlns="http://www.w3.org/2000/svg" p-id="24040" xmlns:xlink="http://www.w3.org/1999/xlink" width="32" height="32"><defs><style type="text/css"></style></defs><path d="M1021.824 464.768l-0.576 0.064c-2.048-20.096-17.984-36.032-38.016-38.016l-8.704 0-14.72 0L959.808 426.496c-25.088 0-46.848-14.464-57.28-35.584-2.496-5.184-4.416-10.688-5.44-16.576-4.736-13.12-10.048-25.92-16.064-38.4 0-0.064 0-0.064-0.064-0.064-3.008-4.416-5.44-9.216-7.232-14.336 0-0.064 0-0.064 0-0.064-2.368-6.656-3.648-13.888-3.648-21.312 0-17.664 7.104-33.664 18.752-45.184l-0.064 0 0 0 12.992-12.992c0.192-0.128 0.32-0.256 0.512-0.448 0.128-0.192 0.32-0.32 0.448-0.512 15.168-15.616 15.936-39.936 2.432-56.512l0.256-0.192c-9.984-11.968-20.416-23.424-31.36-34.304-11.2-11.264-22.912-21.952-35.136-32.064l-0.128 0.128c-14.976-12.288-36.48-12.672-51.968-1.344l-9.344 9.344L768.64 134.784 768.256 134.4c-18.624 18.688-45.952 23.424-68.992 14.144-3.136-1.216-6.144-2.752-9.088-4.48-14.72-7.104-29.888-13.376-45.504-18.752C641.92 124.608 639.232 123.648 636.544 122.56c0 0-0.064 0-0.064-0.064C628.864 119.488 621.632 114.752 615.424 108.544 604.992 98.112 598.976 84.928 597.184 71.36c-0.704-5.312-0.704-10.688 0-16L597.184 44.352c0-20.992-15.168-38.4-35.136-41.984-2.496-0.256-4.928-0.448-7.488-0.64L554.624 1.728C540.544 0.64 526.336 0 512 0 497.664 0 483.456 0.64 469.376 1.792L469.376 1.792c-2.496 0.192-4.992 0.384-7.488 0.64C441.92 5.952 426.752 23.424 426.752 44.352L426.752 63.36c0 27.456-17.28 50.88-41.536 59.904C383.68 123.904 382.08 124.416 380.48 124.864 363.392 130.624 346.88 137.472 331.008 145.408 330.88 145.408 330.88 145.472 330.816 145.472c-1.28 0.704-2.496 1.28-3.84 1.92C318.848 151.104 309.888 153.152 300.352 153.152c-17.664 0-33.664-7.168-45.184-18.752L255.104 134.528l-13.504-13.44c-14.848-14.848-37.76-16.448-54.336-4.928-1.92 1.536-3.84 3.136-5.632 4.672C181.504 120.96 181.44 121.024 181.376 121.088 170.496 130.304 160 139.904 149.952 149.952 139.904 160 130.304 170.432 121.152 181.248c0 0-0.064 0-0.064 0.064-1.664 1.92-3.264 3.84-4.864 5.824-11.648 16.64-9.984 39.616 4.864 54.464l13.44 13.44c19.328 19.392 23.68 48.064 12.992 71.616C146.88 328.128 146.176 329.6 145.344 331.008 137.472 346.88 130.624 363.392 124.928 380.288 124.416 382.144 123.776 383.872 123.072 385.6c0 0 0 0 0 0.064C120 393.728 115.2 401.408 108.608 407.872c-12.48 12.48-28.8 18.752-45.184 18.752l0 0.192L44.416 426.816c-20.992 0-38.4 15.104-41.984 35.072C2.176 464.32 1.92 466.816 1.728 469.376l0 0C0.576 483.136 0 497.984 0 512l0 0c0 0.128 0 0.256 0 0.32C0 512.448 0 512.64 0 512.704l0 0C0 526.848 0.576 540.8 1.728 554.56l0 0.064C1.92 557.12 2.176 559.616 2.432 562.112c3.584 19.968 20.928 35.136 41.856 35.136 0 0 0 0 0.064 0l19.072 0 0 0c27.2 0 50.432 17.024 59.648 41.024 0 0.064 0 0.064 0 0.064 0.64 1.6 1.152 3.2 1.536 4.8 0.064 0.064 0.064 0.192 0.192 0.32 5.696 17.024 12.608 33.536 20.48 49.472 0.064 0.064 0.128 0.192 0.192 0.256 0.704 1.216 1.28 2.496 1.92 3.84 3.712 8.128 5.824 17.152 5.824 26.624 0 17.664-7.168 33.664-18.752 45.184l0.064 0.064-12.992 12.992c-0.192 0.128-0.32 0.32-0.512 0.448-0.192 0.192-0.32 0.32-0.448 0.512-14.208 14.656-15.808 36.992-4.8 53.376 1.856 2.24 3.712 4.48 5.568 6.656 9.088 10.752 18.624 21.056 28.608 31.04l0 0c9.984 9.984 20.352 19.584 31.104 28.672 2.176 1.856 4.352 3.648 6.528 5.44 14.784 9.984 34.432 9.6 48.896-0.96l9.344-9.344 8.768-8.768 0.384 0.32c19.392-19.328 48.128-23.68 71.744-12.928 1.216 0.512 2.432 1.152 3.584 1.728 0.064 0.064 0.192 0.064 0.32 0.192 16.064 8 32.704 14.912 49.92 20.736 1.472 0.448 2.944 0.96 4.352 1.472 8.384 3.136 16.256 8 23.04 14.72 12.48 12.48 18.752 28.8 18.752 45.184l0.192 0L426.88 979.2c0 22.016 16.704 40.192 38.208 42.368l0 0.256C480.512 1023.296 496.128 1024 512 1024c15.872 0 31.488-0.704 46.976-2.176l-0.064-0.256c21.44-2.176 38.272-20.352 38.272-42.368l0-19.008c0-25.664 15.104-47.744 36.864-57.92 4.416-2.112 9.088-3.648 13.952-4.672 14.016-4.928 27.648-10.56 40.896-17.024 3.84-2.496 8-4.608 12.288-6.144 6.912-2.624 14.464-4.096 22.4-4.096 16.192 0 31.04 6.08 42.368 16.128 1.92 1.664 3.776 3.456 5.504 5.44l10.88 10.944 0.064-0.064c14.976 14.976 38.464 16.448 55.104 4.416 0.064 0 0.128-0.064 0.192-0.192 1.408-1.152 2.752-2.24 4.096-3.392 11.2-9.472 21.952-19.328 32.256-29.632 10.304-10.304 20.224-21.056 29.632-32.256 1.216-1.472 2.432-2.944 3.648-4.416 11.712-16.064 10.688-38.4-2.88-53.44l-0.064-0.064L901.312 780.8l0 0-11.904-11.904 0-0.064c-19.072-19.072-23.552-47.168-13.504-70.464 0.96-2.176 1.984-4.352 3.2-6.4 7.552-15.36 14.144-31.296 19.776-47.68 0.64-2.176 1.28-4.352 2.176-6.4 3.072-8 7.872-15.424 14.336-21.888 12.416-12.416 28.8-18.688 45.184-18.688L960.576 597.248l18.368 0L978.944 596.992c22.784 0 41.408-17.92 42.496-40.384l0.64 0.064C1023.36 541.888 1024 526.976 1024 512 1024 496.064 1023.232 480.32 1021.824 464.768zM773.696 512 773.696 512c0 29.824-4.928 58.496-14.144 85.184-3.456 10.176-7.616 20.096-12.224 29.632-12.736 26.176-29.824 49.92-50.112 70.4-20.352 20.416-44.032 37.504-70.144 50.368-9.664 4.8-19.648 8.96-29.888 12.48C570.496 769.408 541.824 774.4 512 774.528c-0.256 0-0.512 0-0.768 0-29.568 0-57.92-4.864-84.416-13.888-10.688-3.584-20.992-7.872-30.912-12.736-26.048-12.736-49.6-29.632-69.888-49.92-20.48-20.352-37.568-43.968-50.368-70.144C270.72 617.984 266.432 607.744 262.848 597.248 253.76 570.688 248.768 542.272 248.704 512.64c0.064-29.568 4.992-59.328 14.144-85.824C266.432 416.256 270.72 406.016 275.584 396.16c12.864-26.112 29.888-49.792 50.368-70.144 20.48-20.352 44.224-37.376 70.4-50.176 9.792-4.736 19.968-8.96 30.4-12.48 26.496-9.024 54.848-13.888 84.416-13.888 0.256 0 0.512 0 0.768 0C541.824 249.6 570.496 254.656 597.184 263.872c10.24 3.52 20.224 7.744 29.824 12.48 26.176 12.864 49.856 30.016 70.208 50.368 20.224 20.352 37.12 43.968 49.92 69.888 4.736 9.728 8.96 19.776 12.48 30.144 9.152 26.624 14.144 55.232 14.144 84.928L773.76 512z" fill="#1296db" p-id="24041"></path></svg>