<?xml version="1.0" standalone="no"?><!DOCTYPE svg PUBLIC "-//W3C//DTD SVG 1.1//EN" "http://www.w3.org/Graphics/SVG/1.1/DTD/svg11.dtd"><svg t="1533190769672" class="icon" style="" viewBox="0 0 1024 1024" version="1.1" xmlns="http://www.w3.org/2000/svg" p-id="4483" xmlns:xlink="http://www.w3.org/1999/xlink" width="11" height="11"><defs><style type="text/css"></style></defs><path d="M650.24 202.24C650.24 125.888 588.352 64 512 64 435.712 64 373.824 125.888 373.824 202.24l0 173.376 276.416 0L650.24 202.24z" p-id="4484" fill="#8a8a8a"></path><path d="M512 732.032c76.416 0 138.304-61.888 138.304-138.24L650.304 414.208 373.824 414.208l0 179.52C373.824 670.144 435.712 732.032 512 732.032z" p-id="4485" fill="#8a8a8a"></path><path d="M741.76 614.976 741.76 414.208l-58.88 0 0 200.768 0 0c-13.248 82.496-84.608 145.536-170.88 145.536-86.144 0-157.44-63.04-170.688-145.536L341.312 414.208 282.24 414.208l0 200.768c14.72 101.824 95.616 182.016 197.632 196.096l0 84.032L322.816 895.104 322.816 960l380.544 0 0-64.896L544.128 895.104l0-83.968C646.144 797.056 726.976 716.864 741.76 614.976z" p-id="4486" fill="#8a8a8a"></path></svg>