<?xml version="1.0" standalone="no"?><!DOCTYPE svg PUBLIC "-//W3C//DTD SVG 1.1//EN" "http://www.w3.org/Graphics/SVG/1.1/DTD/svg11.dtd"><svg t="1533294454884" class="icon" style="" viewBox="0 0 1280 1024" version="1.1" xmlns="http://www.w3.org/2000/svg" p-id="2849" xmlns:xlink="http://www.w3.org/1999/xlink" width="40" height="32"><defs><style type="text/css"></style></defs><path d="M1280.021547 887.041712a152.744757 152.744757 0 0 1-8.959888 51.626021 133.971659 133.971659 0 0 1-26.026341 42.666134 121.171819 121.171819 0 0 1-39.679504 29.439632 116.051883 116.051883 0 0 1-49.492715 10.666533h-1023.9872a124.585109 124.585109 0 0 1-50.772699-10.666533 134.824981 134.824981 0 0 1-42.666133-29.439632 140.371579 140.371579 0 0 1-29.012971-42.666134A134.824981 134.824981 0 0 1 0.037547 887.041712V136.971088A136.531627 136.531627 0 0 1 37.583744 39.692304 119.891835 119.891835 0 0 1 128.035947 0.0128h1023.9872a119.891835 119.891835 0 0 1 90.878864 39.679504A136.531627 136.531627 0 0 1 1280.021547 136.971088V341.341867h-319.996a121.171819 121.171819 0 0 0-90.878864 39.252842 133.971659 133.971659 0 0 0-37.546198 96.425462 176.211131 176.211131 0 0 0 15.359808 69.119136 127.9984 127.9984 0 0 0 37.546198 46.506085 117.331867 117.331867 0 0 0 75.519056 20.906405H1280.021547v273.916576" fill="#1296db" p-id="2850"></path><path d="M896.026347 476.593509a67.839152 67.839152 0 0 1 18.773098-49.919376 61.865893 61.865893 0 0 1 90.025542 0 67.839152 67.839152 0 0 1 19.19976 49.919376 70.39912 70.39912 0 0 1-18.346438 49.066054 60.159248 60.159248 0 0 1-90.025541 0 70.39912 70.39912 0 0 1-19.626421-49.066054" fill="#1296db" p-id="2851"></path></svg>